<?xml version="1.0" encoding="UTF-8" standalone="no"?>
<!DOCTYPE svg PUBLIC "-//W3C//DTD SVG 1.1//EN"
 "http://www.w3.org/Graphics/SVG/1.1/DTD/svg11.dtd">
<!-- Generated by graphviz version 12.2.1 (20241206.2353)
 -->
<!-- Title: workspace_crates Pages: 1 -->
<svg width="1037pt" height="1364pt"
 viewBox="0.00 0.00 1036.75 1364.03" xmlns="http://www.w3.org/2000/svg" xmlns:xlink="http://www.w3.org/1999/xlink">
<g id="graph0" class="graph" transform="scale(1 1) rotate(0) translate(4 1360.03)">
<title>workspace_crates</title>
<polygon fill="white" stroke="none" points="-4,4 -4,-1360.03 1032.75,-1360.03 1032.75,4 -4,4"/>
<!-- algebra -->
<g id="node1" class="node">
<title>algebra</title>
<path fill="none" stroke="black" d="M45.62,-417.03C45.62,-417.03 13.87,-417.03 13.87,-417.03 7.87,-417.03 1.88,-411.03 1.88,-405.03 1.88,-405.03 1.88,-393.03 1.88,-393.03 1.88,-387.03 7.88,-381.03 13.88,-381.03 13.88,-381.03 45.62,-381.03 45.62,-381.03 51.62,-381.03 57.62,-387.03 57.62,-393.03 57.62,-393.03 57.62,-405.03 57.62,-405.03 57.62,-411.03 51.62,-417.03 45.62,-417.03"/>
<text text-anchor="middle" x="29.75" y="-393.98" font-family="Times,serif" font-size="14.00">algebra</text>
</g>
<!-- box&#45;ffi -->
<g id="node2" class="node">
<title>box&#45;ffi</title>
<path fill="none" stroke="black" d="M274.38,-417.03C274.38,-417.03 244.38,-417.03 244.38,-417.03 238.38,-417.03 232.38,-411.03 232.38,-405.03 232.38,-405.03 232.38,-393.03 232.38,-393.03 232.38,-387.03 238.38,-381.03 244.38,-381.03 244.38,-381.03 274.38,-381.03 274.38,-381.03 280.38,-381.03 286.38,-387.03 286.38,-393.03 286.38,-393.03 286.38,-405.03 286.38,-405.03 286.38,-411.03 280.38,-417.03 274.38,-417.03"/>
<text text-anchor="middle" x="259.38" y="-393.98" font-family="Times,serif" font-size="14.00">box&#45;ffi</text>
</g>
<!-- boxes -->
<g id="node3" class="node">
<title>boxes</title>
<path fill="none" stroke="black" d="M732.12,-878.03C732.12,-878.03 702.12,-878.03 702.12,-878.03 696.12,-878.03 690.12,-872.03 690.12,-866.03 690.12,-866.03 690.12,-854.03 690.12,-854.03 690.12,-848.03 696.12,-842.03 702.12,-842.03 702.12,-842.03 732.12,-842.03 732.12,-842.03 738.12,-842.03 744.12,-848.03 744.12,-854.03 744.12,-854.03 744.12,-866.03 744.12,-866.03 744.12,-872.03 738.12,-878.03 732.12,-878.03"/>
<text text-anchor="middle" x="717.12" y="-854.98" font-family="Times,serif" font-size="14.00">boxes</text>
</g>
<!-- box&#45;ffi&#45;&gt;boxes -->
<g id="edge1" class="edge">
<title>box&#45;ffi&#45;&gt;boxes</title>
<path fill="none" stroke="black" d="M286.69,-409.47C294.68,-413.65 302.94,-419.14 309,-426.03 337.48,-458.35 321.66,-479.82 345,-516.03 419.54,-631.65 461.01,-643.53 563.75,-735.03 603.98,-770.86 652.37,-809.9 683.66,-834.65"/>
<polygon fill="black" stroke="black" points="681.19,-837.16 691.21,-840.61 685.53,-831.67 681.19,-837.16"/>
</g>
<!-- codegen -->
<g id="node4" class="node">
<title>codegen</title>
<path fill="none" stroke="black" d="M505.25,-1138.03C505.25,-1138.03 468.25,-1138.03 468.25,-1138.03 462.25,-1138.03 456.25,-1132.03 456.25,-1126.03 456.25,-1126.03 456.25,-1114.03 456.25,-1114.03 456.25,-1108.03 462.25,-1102.03 468.25,-1102.03 468.25,-1102.03 505.25,-1102.03 505.25,-1102.03 511.25,-1102.03 517.25,-1108.03 517.25,-1114.03 517.25,-1114.03 517.25,-1126.03 517.25,-1126.03 517.25,-1132.03 511.25,-1138.03 505.25,-1138.03"/>
<text text-anchor="middle" x="486.75" y="-1114.98" font-family="Times,serif" font-size="14.00">codegen</text>
</g>
<!-- box&#45;ffi&#45;&gt;codegen -->
<g id="edge2" class="edge">
<title>box&#45;ffi&#45;&gt;codegen</title>
<path fill="none" stroke="black" d="M286.67,-407.87C295.16,-412.04 303.73,-417.93 309,-426.03 406.57,-576.02 256.68,-671.41 345,-827.03 362.55,-857.95 390.99,-843.82 409.75,-874.03 460.16,-955.23 398.49,-1002.96 445.75,-1086.03 447.31,-1088.78 449.19,-1091.4 451.26,-1093.89"/>
<polygon fill="black" stroke="black" points="448.38,-1095.95 457.85,-1100.71 453.42,-1091.09 448.38,-1095.95"/>
</g>
<!-- compiler -->
<g id="node5" class="node">
<title>compiler</title>
<path fill="none" stroke="black" d="M397.75,-818.03C397.75,-818.03 357,-818.03 357,-818.03 351,-818.03 345,-812.03 345,-806.03 345,-806.03 345,-794.03 345,-794.03 345,-788.03 351,-782.03 357,-782.03 357,-782.03 397.75,-782.03 397.75,-782.03 403.75,-782.03 409.75,-788.03 409.75,-794.03 409.75,-794.03 409.75,-806.03 409.75,-806.03 409.75,-812.03 403.75,-818.03 397.75,-818.03"/>
<text text-anchor="middle" x="377.38" y="-794.98" font-family="Times,serif" font-size="14.00">compiler</text>
</g>
<!-- box&#45;ffi&#45;&gt;compiler -->
<g id="edge3" class="edge">
<title>box&#45;ffi&#45;&gt;compiler</title>
<path fill="none" stroke="black" d="M286.86,-408.04C295.26,-412.21 303.73,-418.05 309,-426.03 393.32,-553.5 279.87,-629.76 345,-768.03 345.73,-769.57 346.56,-771.08 347.47,-772.55"/>
<polygon fill="black" stroke="black" points="344.67,-774.66 353.51,-780.5 350.24,-770.42 344.67,-774.66"/>
</g>
<!-- ffi&#45;common -->
<g id="node12" class="node">
<title>ffi&#45;common</title>
<path fill="none" stroke="black" d="M515.75,-254.03C515.75,-254.03 457.75,-254.03 457.75,-254.03 451.75,-254.03 445.75,-248.03 445.75,-242.03 445.75,-242.03 445.75,-230.03 445.75,-230.03 445.75,-224.03 451.75,-218.03 457.75,-218.03 457.75,-218.03 515.75,-218.03 515.75,-218.03 521.75,-218.03 527.75,-224.03 527.75,-230.03 527.75,-230.03 527.75,-242.03 527.75,-242.03 527.75,-248.03 521.75,-254.03 515.75,-254.03"/>
<text text-anchor="middle" x="486.75" y="-230.98" font-family="Times,serif" font-size="14.00">ffi&#45;common</text>
</g>
<!-- box&#45;ffi&#45;&gt;ffi&#45;common -->
<g id="edge4" class="edge">
<title>box&#45;ffi&#45;&gt;ffi&#45;common</title>
<path fill="none" stroke="black" d="M286.76,-393.16C319.09,-384.81 373.96,-366.77 409.75,-334.03 434.4,-311.47 424.28,-293.63 445.75,-268.03 447.55,-265.88 449.51,-263.78 451.57,-261.74"/>
<polygon fill="black" stroke="black" points="453.65,-264.58 458.72,-255.27 448.95,-259.39 453.65,-264.58"/>
</g>
<!-- fir -->
<g id="node13" class="node">
<title>fir</title>
<path fill="none" stroke="black" d="M618.25,-1246.03C618.25,-1246.03 588.25,-1246.03 588.25,-1246.03 582.25,-1246.03 576.25,-1240.03 576.25,-1234.03 576.25,-1234.03 576.25,-1222.03 576.25,-1222.03 576.25,-1216.03 582.25,-1210.03 588.25,-1210.03 588.25,-1210.03 618.25,-1210.03 618.25,-1210.03 624.25,-1210.03 630.25,-1216.03 630.25,-1222.03 630.25,-1222.03 630.25,-1234.03 630.25,-1234.03 630.25,-1240.03 624.25,-1246.03 618.25,-1246.03"/>
<text text-anchor="middle" x="603.25" y="-1222.98" font-family="Times,serif" font-size="14.00">fir</text>
</g>
<!-- box&#45;ffi&#45;&gt;fir -->
<g id="edge5" class="edge">
<title>box&#45;ffi&#45;&gt;fir</title>
<path fill="none" stroke="black" d="M286.71,-407.85C295.2,-412.02 303.77,-417.91 309,-426.03 362.06,-508.28 324.36,-769.35 345,-865.03 373.07,-995.13 353.52,-1051.08 445.75,-1147.03 472.98,-1175.35 492.86,-1161.97 527.75,-1180.03 541.01,-1186.89 554.93,-1195.45 567.09,-1203.43"/>
<polygon fill="black" stroke="black" points="564.91,-1206.18 575.17,-1208.82 568.8,-1200.36 564.91,-1206.18"/>
</g>
<!-- propagate -->
<g id="node22" class="node">
<title>propagate</title>
<path fill="none" stroke="black" d="M625.88,-726.03C625.88,-726.03 580.62,-726.03 580.62,-726.03 574.62,-726.03 568.62,-720.03 568.62,-714.03 568.62,-714.03 568.62,-702.03 568.62,-702.03 568.62,-696.03 574.62,-690.03 580.62,-690.03 580.62,-690.03 625.88,-690.03 625.88,-690.03 631.88,-690.03 637.88,-696.03 637.88,-702.03 637.88,-702.03 637.88,-714.03 637.88,-714.03 637.88,-720.03 631.88,-726.03 625.88,-726.03"/>
<text text-anchor="middle" x="603.25" y="-702.98" font-family="Times,serif" font-size="14.00">propagate</text>
</g>
<!-- box&#45;ffi&#45;&gt;propagate -->
<g id="edge6" class="edge">
<title>box&#45;ffi&#45;&gt;propagate</title>
<path fill="none" stroke="black" d="M286.78,-411.33C294.34,-415.46 302.33,-420.46 309,-426.03 328.39,-442.23 327.69,-451.63 345,-470.03 422.13,-552 522.12,-639.78 571.65,-682.17"/>
<polygon fill="black" stroke="black" points="569.27,-684.73 579.15,-688.56 573.81,-679.41 569.27,-684.73"/>
</g>
<!-- tlib -->
<g id="node26" class="node">
<title>tlib</title>
<path fill="none" stroke="black" d="M1016.75,-775.03C1016.75,-775.03 986.75,-775.03 986.75,-775.03 980.75,-775.03 974.75,-769.03 974.75,-763.03 974.75,-763.03 974.75,-751.03 974.75,-751.03 974.75,-745.03 980.75,-739.03 986.75,-739.03 986.75,-739.03 1016.75,-739.03 1016.75,-739.03 1022.75,-739.03 1028.75,-745.03 1028.75,-751.03 1028.75,-751.03 1028.75,-763.03 1028.75,-763.03 1028.75,-769.03 1022.75,-775.03 1016.75,-775.03"/>
<text text-anchor="middle" x="1001.75" y="-751.98" font-family="Times,serif" font-size="14.00">tlib</text>
</g>
<!-- box&#45;ffi&#45;&gt;tlib -->
<g id="edge7" class="edge">
<title>box&#45;ffi&#45;&gt;tlib</title>
<path fill="none" stroke="black" d="M266.5,-380.56C278.56,-345.51 307.53,-267.58 345,-209.03 419,-93.39 464.96,-38.03 602.25,-38.03 602.25,-38.03 602.25,-38.03 821.12,-38.03 880.01,-38.03 905.83,-50.2 938.75,-99.03 974.29,-151.74 994.76,-606.39 999.62,-727.49"/>
<polygon fill="black" stroke="black" points="996.11,-727.4 1000,-737.25 1003.11,-727.12 996.11,-727.4"/>
</g>
<!-- transform -->
<g id="node27" class="node">
<title>transform</title>
<path fill="none" stroke="black" d="M509.38,-528.03C509.38,-528.03 464.12,-528.03 464.12,-528.03 458.12,-528.03 452.12,-522.03 452.12,-516.03 452.12,-516.03 452.12,-504.03 452.12,-504.03 452.12,-498.03 458.12,-492.03 464.12,-492.03 464.12,-492.03 509.38,-492.03 509.38,-492.03 515.38,-492.03 521.38,-498.03 521.38,-504.03 521.38,-504.03 521.38,-516.03 521.38,-516.03 521.38,-522.03 515.38,-528.03 509.38,-528.03"/>
<text text-anchor="middle" x="486.75" y="-504.98" font-family="Times,serif" font-size="14.00">transform</text>
</g>
<!-- box&#45;ffi&#45;&gt;transform -->
<g id="edge8" class="edge">
<title>box&#45;ffi&#45;&gt;transform</title>
<path fill="none" stroke="black" d="M286.67,-411.98C324.7,-430.71 395.53,-465.59 441.64,-488.3"/>
<polygon fill="black" stroke="black" points="440.06,-491.43 450.58,-492.7 443.15,-485.15 440.06,-491.43"/>
</g>
<!-- tree&#45;ffi -->
<g id="node28" class="node">
<title>tree&#45;ffi</title>
<path fill="none" stroke="black" d="M392.38,-254.03C392.38,-254.03 362.38,-254.03 362.38,-254.03 356.38,-254.03 350.38,-248.03 350.38,-242.03 350.38,-242.03 350.38,-230.03 350.38,-230.03 350.38,-224.03 356.38,-218.03 362.38,-218.03 362.38,-218.03 392.38,-218.03 392.38,-218.03 398.38,-218.03 404.38,-224.03 404.38,-230.03 404.38,-230.03 404.38,-242.03 404.38,-242.03 404.38,-248.03 398.38,-254.03 392.38,-254.03"/>
<text text-anchor="middle" x="377.38" y="-230.98" font-family="Times,serif" font-size="14.00">tree&#45;ffi</text>
</g>
<!-- box&#45;ffi&#45;&gt;tree&#45;ffi -->
<g id="edge9" class="edge">
<title>box&#45;ffi&#45;&gt;tree&#45;ffi</title>
<path fill="none" stroke="black" d="M273.46,-380.65C293.84,-352 333.3,-296.55 357,-263.26"/>
<polygon fill="black" stroke="black" points="359.69,-265.5 362.64,-255.33 353.99,-261.44 359.69,-265.5"/>
</g>
<!-- ui -->
<g id="node29" class="node">
<title>ui</title>
<path fill="none" stroke="black" d="M926.75,-490.03C926.75,-490.03 896.75,-490.03 896.75,-490.03 890.75,-490.03 884.75,-484.03 884.75,-478.03 884.75,-478.03 884.75,-466.03 884.75,-466.03 884.75,-460.03 890.75,-454.03 896.75,-454.03 896.75,-454.03 926.75,-454.03 926.75,-454.03 932.75,-454.03 938.75,-460.03 938.75,-466.03 938.75,-466.03 938.75,-478.03 938.75,-478.03 938.75,-484.03 932.75,-490.03 926.75,-490.03"/>
<text text-anchor="middle" x="911.75" y="-466.98" font-family="Times,serif" font-size="14.00">ui</text>
</g>
<!-- box&#45;ffi&#45;&gt;ui -->
<g id="edge10" class="edge">
<title>box&#45;ffi&#45;&gt;ui</title>
<path fill="none" stroke="black" d="M284.02,-380.56C314.94,-355.77 369.85,-309.43 409.75,-263.03 428.55,-241.16 420.68,-223.29 445.75,-209.03 565.51,-140.92 622.02,-162.91 755.5,-197.03 801.27,-208.73 819.41,-211.01 848.75,-248.03 894.76,-306.09 906.67,-396.08 909.72,-442.34"/>
<polygon fill="black" stroke="black" points="906.21,-442.34 910.26,-452.13 913.2,-441.95 906.21,-442.34"/>
</g>
<!-- boxes&#45;&gt;tlib -->
<g id="edge11" class="edge">
<title>boxes&#45;&gt;tlib</title>
<path fill="none" stroke="black" d="M744.49,-853.33C786.44,-842.32 870.59,-818.7 938.75,-790.03 947.21,-786.47 956.05,-782.15 964.32,-777.83"/>
<polygon fill="black" stroke="black" points="965.92,-780.94 973.08,-773.13 962.61,-774.77 965.92,-780.94"/>
</g>
<!-- codegen&#45;&gt;fir -->
<g id="edge12" class="edge">
<title>codegen&#45;&gt;fir</title>
<path fill="none" stroke="black" d="M512.75,-1138.35C517.93,-1142.6 523.19,-1147.28 527.75,-1152.03 546.46,-1171.52 544.43,-1182.13 563.75,-1201.03 564.92,-1202.17 566.14,-1203.3 567.39,-1204.41"/>
<polygon fill="black" stroke="black" points="564.91,-1206.9 574.89,-1210.46 569.31,-1201.46 564.91,-1206.9"/>
</g>
<!-- foreign&#45;call -->
<g id="node14" class="node">
<title>foreign&#45;call</title>
<path fill="none" stroke="black" d="M630.75,-1192.03C630.75,-1192.03 575.75,-1192.03 575.75,-1192.03 569.75,-1192.03 563.75,-1186.03 563.75,-1180.03 563.75,-1180.03 563.75,-1168.03 563.75,-1168.03 563.75,-1162.03 569.75,-1156.03 575.75,-1156.03 575.75,-1156.03 630.75,-1156.03 630.75,-1156.03 636.75,-1156.03 642.75,-1162.03 642.75,-1168.03 642.75,-1168.03 642.75,-1180.03 642.75,-1180.03 642.75,-1186.03 636.75,-1192.03 630.75,-1192.03"/>
<text text-anchor="middle" x="603.25" y="-1168.98" font-family="Times,serif" font-size="14.00">foreign&#45;call</text>
</g>
<!-- codegen&#45;&gt;foreign&#45;call -->
<g id="edge13" class="edge">
<title>codegen&#45;&gt;foreign&#45;call</title>
<path fill="none" stroke="black" d="M517.53,-1134.07C528.51,-1139.25 541.25,-1145.26 553.46,-1151.02"/>
<polygon fill="black" stroke="black" points="551.64,-1154.03 562.18,-1155.13 554.63,-1147.7 551.64,-1154.03"/>
</g>
<!-- compiler&#45;&gt;boxes -->
<g id="edge14" class="edge">
<title>compiler&#45;&gt;boxes</title>
<path fill="none" stroke="black" d="M410.07,-814.47C421.17,-819.06 433.84,-823.78 445.75,-827.03 526.8,-849.13 625.57,-856.45 678.43,-858.86"/>
<polygon fill="black" stroke="black" points="678.27,-862.35 688.41,-859.27 678.56,-855.36 678.27,-862.35"/>
</g>
<!-- compiler&#45;&gt;codegen -->
<g id="edge15" class="edge">
<title>compiler&#45;&gt;codegen</title>
<path fill="none" stroke="black" d="M393.57,-818.19C399.54,-826.24 405.87,-836.13 409.75,-846.03 449.39,-947.28 391.54,-993.76 445.75,-1088.03 446.85,-1089.94 448.11,-1091.77 449.49,-1093.54"/>
<polygon fill="black" stroke="black" points="446.75,-1095.74 456.15,-1100.62 451.85,-1090.94 446.75,-1095.74"/>
</g>
<!-- diagnostics -->
<g id="node7" class="node">
<title>diagnostics</title>
<path fill="none" stroke="black" d="M743.5,-1032.03C743.5,-1032.03 690.75,-1032.03 690.75,-1032.03 684.75,-1032.03 678.75,-1026.03 678.75,-1020.03 678.75,-1020.03 678.75,-1008.03 678.75,-1008.03 678.75,-1002.03 684.75,-996.03 690.75,-996.03 690.75,-996.03 743.5,-996.03 743.5,-996.03 749.5,-996.03 755.5,-1002.03 755.5,-1008.03 755.5,-1008.03 755.5,-1020.03 755.5,-1020.03 755.5,-1026.03 749.5,-1032.03 743.5,-1032.03"/>
<text text-anchor="middle" x="717.12" y="-1008.98" font-family="Times,serif" font-size="14.00">diagnostics</text>
</g>
<!-- compiler&#45;&gt;diagnostics -->
<g id="edge16" class="edge">
<title>compiler&#45;&gt;diagnostics</title>
<path fill="none" stroke="black" d="M405.16,-818.28C406.79,-819.81 408.34,-821.39 409.75,-823.03 432.11,-848.9 421.75,-866.67 445.75,-891.03 474.92,-920.64 498.66,-906.32 527.75,-936.03 551.95,-960.74 534.71,-986.23 563.75,-1005.03 594.06,-1024.65 635.28,-1025.93 667.2,-1022.84"/>
<polygon fill="black" stroke="black" points="667.47,-1026.33 677,-1021.7 666.66,-1019.38 667.47,-1026.33"/>
</g>
<!-- draw -->
<g id="node9" class="node">
<title>draw</title>
<path fill="none" stroke="black" d="M618.25,-932.03C618.25,-932.03 588.25,-932.03 588.25,-932.03 582.25,-932.03 576.25,-926.03 576.25,-920.03 576.25,-920.03 576.25,-908.03 576.25,-908.03 576.25,-902.03 582.25,-896.03 588.25,-896.03 588.25,-896.03 618.25,-896.03 618.25,-896.03 624.25,-896.03 630.25,-902.03 630.25,-908.03 630.25,-908.03 630.25,-920.03 630.25,-920.03 630.25,-926.03 624.25,-932.03 618.25,-932.03"/>
<text text-anchor="middle" x="603.25" y="-908.98" font-family="Times,serif" font-size="14.00">draw</text>
</g>
<!-- compiler&#45;&gt;draw -->
<g id="edge17" class="edge">
<title>compiler&#45;&gt;draw</title>
<path fill="none" stroke="black" d="M395.14,-818.44C407.93,-831.55 426.56,-848.79 445.75,-860.03 483.69,-882.25 532.16,-897.2 565.04,-905.63"/>
<polygon fill="black" stroke="black" points="563.96,-908.96 574.5,-907.97 565.64,-902.17 563.96,-908.96"/>
</g>
<!-- eval -->
<g id="node10" class="node">
<title>eval</title>
<path fill="none" stroke="black" d="M501.75,-818.03C501.75,-818.03 471.75,-818.03 471.75,-818.03 465.75,-818.03 459.75,-812.03 459.75,-806.03 459.75,-806.03 459.75,-794.03 459.75,-794.03 459.75,-788.03 465.75,-782.03 471.75,-782.03 471.75,-782.03 501.75,-782.03 501.75,-782.03 507.75,-782.03 513.75,-788.03 513.75,-794.03 513.75,-794.03 513.75,-806.03 513.75,-806.03 513.75,-812.03 507.75,-818.03 501.75,-818.03"/>
<text text-anchor="middle" x="486.75" y="-794.98" font-family="Times,serif" font-size="14.00">eval</text>
</g>
<!-- compiler&#45;&gt;eval -->
<g id="edge18" class="edge">
<title>compiler&#45;&gt;eval</title>
<path fill="none" stroke="black" d="M410.01,-800.03C421.92,-800.03 435.58,-800.03 447.99,-800.03"/>
<polygon fill="black" stroke="black" points="447.89,-803.53 457.89,-800.03 447.89,-796.53 447.89,-803.53"/>
</g>
<!-- compiler&#45;&gt;fir -->
<g id="edge19" class="edge">
<title>compiler&#45;&gt;fir</title>
<path fill="none" stroke="black" d="M393.44,-818.24C399.38,-826.3 405.74,-836.18 409.75,-846.03 444.47,-931.3 391.42,-975.7 445.75,-1050.03 470.04,-1083.25 501.09,-1061.68 527.75,-1093.03 560.53,-1131.57 533.51,-1160.46 563.75,-1201.03 564.89,-1202.56 566.14,-1204.03 567.48,-1205.45"/>
<polygon fill="black" stroke="black" points="564.91,-1207.85 574.7,-1211.92 569.59,-1202.64 564.91,-1207.85"/>
</g>
<!-- interval -->
<g id="node18" class="node">
<title>interval</title>
<path fill="none" stroke="black" d="M836.75,-330.03C836.75,-330.03 803.5,-330.03 803.5,-330.03 797.5,-330.03 791.5,-324.03 791.5,-318.03 791.5,-318.03 791.5,-306.03 791.5,-306.03 791.5,-300.03 797.5,-294.03 803.5,-294.03 803.5,-294.03 836.75,-294.03 836.75,-294.03 842.75,-294.03 848.75,-300.03 848.75,-306.03 848.75,-306.03 848.75,-318.03 848.75,-318.03 848.75,-324.03 842.75,-330.03 836.75,-330.03"/>
<text text-anchor="middle" x="820.12" y="-306.98" font-family="Times,serif" font-size="14.00">interval</text>
</g>
<!-- compiler&#45;&gt;interval -->
<g id="edge20" class="edge">
<title>compiler&#45;&gt;interval</title>
<path fill="none" stroke="black" d="M383.27,-781.87C390.17,-755.61 402.71,-705.44 409.75,-662.03 422.83,-581.36 396.74,-361.43 445.75,-296.03 469.31,-264.59 495.42,-285.34 527.75,-263.03 547.17,-249.63 542.8,-234.87 563.75,-224.03 609.53,-200.34 627.31,-212.37 678.75,-209.03 712.79,-206.82 725.71,-192.41 755.5,-209.03 783.68,-224.74 800.94,-258.64 810.24,-283.27"/>
<polygon fill="black" stroke="black" points="806.84,-284.14 813.47,-292.4 813.44,-281.81 806.84,-284.14"/>
</g>
<!-- parser -->
<g id="node21" class="node">
<title>parser</title>
<path fill="none" stroke="black" d="M618.25,-1100.03C618.25,-1100.03 588.25,-1100.03 588.25,-1100.03 582.25,-1100.03 576.25,-1094.03 576.25,-1088.03 576.25,-1088.03 576.25,-1076.03 576.25,-1076.03 576.25,-1070.03 582.25,-1064.03 588.25,-1064.03 588.25,-1064.03 618.25,-1064.03 618.25,-1064.03 624.25,-1064.03 630.25,-1070.03 630.25,-1076.03 630.25,-1076.03 630.25,-1088.03 630.25,-1088.03 630.25,-1094.03 624.25,-1100.03 618.25,-1100.03"/>
<text text-anchor="middle" x="603.25" y="-1076.98" font-family="Times,serif" font-size="14.00">parser</text>
</g>
<!-- compiler&#45;&gt;parser -->
<g id="edge21" class="edge">
<title>compiler&#45;&gt;parser</title>
<path fill="none" stroke="black" d="M392.16,-818.25C398.02,-826.47 404.66,-836.47 409.75,-846.03 430.01,-884.05 417.64,-903.38 445.75,-936.03 473.3,-968.03 498.34,-953.72 527.75,-984.03 551.02,-1008.01 542.52,-1024.22 563.75,-1050.03 565.36,-1051.99 567.11,-1053.92 568.94,-1055.81"/>
<polygon fill="black" stroke="black" points="566.55,-1058.36 576.23,-1062.65 571.34,-1053.25 566.55,-1058.36"/>
</g>
<!-- compiler&#45;&gt;propagate -->
<g id="edge22" class="edge">
<title>compiler&#45;&gt;propagate</title>
<path fill="none" stroke="black" d="M409.98,-787.04C448.53,-771.2 513.97,-744.31 557.64,-726.36"/>
<polygon fill="black" stroke="black" points="558.93,-729.62 566.85,-722.58 556.27,-723.14 558.93,-729.62"/>
</g>
<!-- signals -->
<g id="node24" class="node">
<title>signals</title>
<path fill="none" stroke="black" d="M835.12,-566.03C835.12,-566.03 805.12,-566.03 805.12,-566.03 799.12,-566.03 793.12,-560.03 793.12,-554.03 793.12,-554.03 793.12,-542.03 793.12,-542.03 793.12,-536.03 799.12,-530.03 805.12,-530.03 805.12,-530.03 835.12,-530.03 835.12,-530.03 841.12,-530.03 847.12,-536.03 847.12,-542.03 847.12,-542.03 847.12,-554.03 847.12,-554.03 847.12,-560.03 841.12,-566.03 835.12,-566.03"/>
<text text-anchor="middle" x="820.12" y="-542.98" font-family="Times,serif" font-size="14.00">signals</text>
</g>
<!-- compiler&#45;&gt;signals -->
<g id="edge23" class="edge">
<title>compiler&#45;&gt;signals</title>
<path fill="none" stroke="black" d="M397.27,-781.53C410.63,-768.59 429.06,-751 445.75,-736.03 496.91,-690.11 504.01,-670.03 563.75,-636.03 635.93,-594.95 730.46,-568.59 781.88,-556.24"/>
<polygon fill="black" stroke="black" points="782.37,-559.72 791.3,-554.03 780.77,-552.91 782.37,-559.72"/>
</g>
<!-- sigtype -->
<g id="node25" class="node">
<title>sigtype</title>
<path fill="none" stroke="black" d="M732.62,-254.03C732.62,-254.03 701.62,-254.03 701.62,-254.03 695.62,-254.03 689.62,-248.03 689.62,-242.03 689.62,-242.03 689.62,-230.03 689.62,-230.03 689.62,-224.03 695.62,-218.03 701.62,-218.03 701.62,-218.03 732.62,-218.03 732.62,-218.03 738.62,-218.03 744.62,-224.03 744.62,-230.03 744.62,-230.03 744.62,-242.03 744.62,-242.03 744.62,-248.03 738.62,-254.03 732.62,-254.03"/>
<text text-anchor="middle" x="717.12" y="-230.98" font-family="Times,serif" font-size="14.00">sigtype</text>
</g>
<!-- compiler&#45;&gt;sigtype -->
<g id="edge24" class="edge">
<title>compiler&#45;&gt;sigtype</title>
<path fill="none" stroke="black" d="M383.1,-781.84C389.79,-755.55 402.06,-705.33 409.75,-662.03 431.68,-538.49 391.77,-495.29 445.75,-382.03 468.47,-334.35 494.21,-336.82 527.75,-296.03 545.37,-274.6 539.5,-258.51 563.75,-245.03 598.71,-225.58 645.43,-225.94 677.88,-229.51"/>
<polygon fill="black" stroke="black" points="677.27,-232.96 687.64,-230.75 678.16,-226.02 677.27,-232.96"/>
</g>
<!-- compiler&#45;&gt;tlib -->
<g id="edge25" class="edge">
<title>compiler&#45;&gt;tlib</title>
<path fill="none" stroke="black" d="M406.22,-818.51C407.51,-819.95 408.7,-821.45 409.75,-823.03 447.91,-880.5 410.95,-914.46 445.75,-974.03 470.81,-1016.93 496.29,-1011.57 527.75,-1050.03 547.2,-1073.8 537.95,-1092.36 563.75,-1109.03 621.08,-1146.06 647.88,-1128.03 716.12,-1128.03 716.12,-1128.03 716.12,-1128.03 821.12,-1128.03 972.51,-1128.03 996.36,-874.68 1000.08,-786.7"/>
<polygon fill="black" stroke="black" points="1003.57,-787.06 1000.42,-776.94 996.57,-786.81 1003.57,-787.06"/>
</g>
<!-- compiler&#45;&gt;transform -->
<g id="edge26" class="edge">
<title>compiler&#45;&gt;transform</title>
<path fill="none" stroke="black" d="M384.06,-781.6C390.35,-761.18 400.8,-727.26 409.75,-698.03 425.81,-645.6 424.01,-630.37 445.75,-580.03 451.91,-565.77 460.24,-550.73 467.7,-538.25"/>
<polygon fill="black" stroke="black" points="470.68,-540.1 472.92,-529.74 464.71,-536.44 470.68,-540.1"/>
</g>
<!-- compiler&#45;&gt;ui -->
<g id="edge27" class="edge">
<title>compiler&#45;&gt;ui</title>
<path fill="none" stroke="black" d="M382.68,-781.76C388.87,-755.37 400.54,-705.03 409.75,-662.03 426.75,-582.68 397.88,-548.55 445.75,-483.03 492.7,-418.77 522.67,-396.03 602.25,-396.03 602.25,-396.03 602.25,-396.03 718.12,-396.03 776.04,-396.03 837.35,-426.13 874.84,-448.44"/>
<polygon fill="black" stroke="black" points="872.65,-451.2 883.01,-453.42 876.3,-445.23 872.65,-451.2"/>
</g>
<!-- cranelift&#45;ffi -->
<g id="node6" class="node">
<title>cranelift&#45;ffi</title>
<path fill="none" stroke="black" d="M161.75,-712.03C161.75,-712.03 107.5,-712.03 107.5,-712.03 101.5,-712.03 95.5,-706.03 95.5,-700.03 95.5,-700.03 95.5,-688.03 95.5,-688.03 95.5,-682.03 101.5,-676.03 107.5,-676.03 107.5,-676.03 161.75,-676.03 161.75,-676.03 167.75,-676.03 173.75,-682.03 173.75,-688.03 173.75,-688.03 173.75,-700.03 173.75,-700.03 173.75,-706.03 167.75,-712.03 161.75,-712.03"/>
<text text-anchor="middle" x="134.62" y="-688.98" font-family="Times,serif" font-size="14.00">cranelift&#45;ffi</text>
</g>
<!-- cranelift&#45;ffi&#45;&gt;box&#45;ffi -->
<g id="edge28" class="edge">
<title>cranelift&#45;ffi&#45;&gt;box&#45;ffi</title>
<path fill="none" stroke="black" d="M135.99,-675.61C137.83,-628.87 148.54,-503.79 209.75,-426.03 213.19,-421.66 217.54,-417.89 222.22,-414.67"/>
<polygon fill="black" stroke="black" points="223.98,-417.7 230.8,-409.59 220.42,-411.67 223.98,-417.7"/>
</g>
<!-- cranelift&#45;ffi&#45;&gt;codegen -->
<g id="edge29" class="edge">
<title>cranelift&#45;ffi&#45;&gt;codegen</title>
<path fill="none" stroke="black" d="M136.45,-712.1C139.98,-781.14 156.17,-1026.97 209.75,-1079.03 272.62,-1140.1 384.49,-1135.32 444.69,-1127.27"/>
<polygon fill="black" stroke="black" points="445.12,-1130.75 454.52,-1125.85 444.12,-1123.82 445.12,-1130.75"/>
</g>
<!-- cranelift&#45;ffi&#45;&gt;compiler -->
<g id="edge30" class="edge">
<title>cranelift&#45;ffi&#45;&gt;compiler</title>
<path fill="none" stroke="black" d="M174.04,-710.94C217.79,-730.2 289.06,-761.58 334.28,-781.5"/>
<polygon fill="black" stroke="black" points="332.68,-784.62 343.25,-785.44 335.51,-778.21 332.68,-784.62"/>
</g>
<!-- cranelift&#45;ffi&#45;&gt;ffi&#45;common -->
<g id="edge31" class="edge">
<title>cranelift&#45;ffi&#45;&gt;ffi&#45;common</title>
<path fill="none" stroke="black" d="M155.58,-675.61C212.62,-622.59 374.5,-469.36 409.75,-406.03 440.58,-350.64 411.25,-321.2 445.75,-268.03 447.09,-265.97 448.6,-263.98 450.24,-262.07"/>
<polygon fill="black" stroke="black" points="452.39,-264.87 456.97,-255.32 447.43,-259.93 452.39,-264.87"/>
</g>
<!-- cranelift&#45;ffi&#45;&gt;fir -->
<g id="edge32" class="edge">
<title>cranelift&#45;ffi&#45;&gt;fir</title>
<path fill="none" stroke="black" d="M136.6,-712.39C141.76,-806.37 167.32,-1230.59 209.75,-1269.03 224.88,-1282.74 498.78,-1281.1 527.75,-1273.03 542.57,-1268.9 557.38,-1260.94 569.85,-1252.85"/>
<polygon fill="black" stroke="black" points="571.76,-1255.78 578.05,-1247.25 567.82,-1250 571.76,-1255.78"/>
</g>
<!-- interp&#45;ffi -->
<g id="node17" class="node">
<title>interp&#45;ffi</title>
<path fill="none" stroke="black" d="M279.75,-712.03C279.75,-712.03 239,-712.03 239,-712.03 233,-712.03 227,-706.03 227,-700.03 227,-700.03 227,-688.03 227,-688.03 227,-682.03 233,-676.03 239,-676.03 239,-676.03 279.75,-676.03 279.75,-676.03 285.75,-676.03 291.75,-682.03 291.75,-688.03 291.75,-688.03 291.75,-700.03 291.75,-700.03 291.75,-706.03 285.75,-712.03 279.75,-712.03"/>
<text text-anchor="middle" x="259.38" y="-688.98" font-family="Times,serif" font-size="14.00">interp&#45;ffi</text>
</g>
<!-- cranelift&#45;ffi&#45;&gt;interp&#45;ffi -->
<g id="edge33" class="edge">
<title>cranelift&#45;ffi&#45;&gt;interp&#45;ffi</title>
<path fill="none" stroke="black" d="M174.13,-694.03C187.18,-694.03 201.84,-694.03 215.23,-694.03"/>
<polygon fill="black" stroke="black" points="215.08,-697.53 225.08,-694.03 215.08,-690.53 215.08,-697.53"/>
</g>
<!-- doc -->
<g id="node8" class="node">
<title>doc</title>
<path fill="none" stroke="black" d="M44.75,-525.03C44.75,-525.03 14.75,-525.03 14.75,-525.03 8.75,-525.03 2.75,-519.03 2.75,-513.03 2.75,-513.03 2.75,-501.03 2.75,-501.03 2.75,-495.03 8.75,-489.03 14.75,-489.03 14.75,-489.03 44.75,-489.03 44.75,-489.03 50.75,-489.03 56.75,-495.03 56.75,-501.03 56.75,-501.03 56.75,-513.03 56.75,-513.03 56.75,-519.03 50.75,-525.03 44.75,-525.03"/>
<text text-anchor="middle" x="29.75" y="-501.98" font-family="Times,serif" font-size="14.00">doc</text>
</g>
<!-- draw&#45;&gt;boxes -->
<g id="edge34" class="edge">
<title>draw&#45;&gt;boxes</title>
<path fill="none" stroke="black" d="M630.48,-901.37C645.1,-894.31 663.54,-885.41 679.56,-877.68"/>
<polygon fill="black" stroke="black" points="680.82,-880.95 688.31,-873.45 677.78,-874.65 680.82,-880.95"/>
</g>
<!-- draw&#45;&gt;tlib -->
<g id="edge35" class="edge">
<title>draw&#45;&gt;tlib</title>
<path fill="none" stroke="black" d="M630.53,-911.03C689.69,-903.29 836.12,-878.55 938.75,-814.03 952.23,-805.55 965.46,-793.98 976.21,-783.47"/>
<polygon fill="black" stroke="black" points="978.64,-785.99 983.2,-776.42 973.67,-781.06 978.64,-785.99"/>
</g>
<!-- eval&#45;&gt;boxes -->
<g id="edge36" class="edge">
<title>eval&#45;&gt;boxes</title>
<path fill="none" stroke="black" d="M513.95,-806.91C554.45,-817.55 632.43,-838.04 678.81,-850.22"/>
<polygon fill="black" stroke="black" points="677.86,-853.59 688.42,-852.75 679.64,-846.82 677.86,-853.59"/>
</g>
<!-- eval&#45;&gt;diagnostics -->
<g id="edge37" class="edge">
<title>eval&#45;&gt;diagnostics</title>
<path fill="none" stroke="black" d="M494.66,-818.23C510.9,-860.62 551.07,-963.18 563.75,-974.03 592.47,-998.6 634.59,-1008.3 667.27,-1012.03"/>
<polygon fill="black" stroke="black" points="666.6,-1015.48 676.89,-1012.96 667.28,-1008.51 666.6,-1015.48"/>
</g>
<!-- normalize -->
<g id="node20" class="node">
<title>normalize</title>
<path fill="none" stroke="black" d="M626.62,-368.03C626.62,-368.03 579.88,-368.03 579.88,-368.03 573.88,-368.03 567.88,-362.03 567.88,-356.03 567.88,-356.03 567.88,-344.03 567.88,-344.03 567.88,-338.03 573.88,-332.03 579.88,-332.03 579.88,-332.03 626.62,-332.03 626.62,-332.03 632.62,-332.03 638.62,-338.03 638.62,-344.03 638.62,-344.03 638.62,-356.03 638.62,-356.03 638.62,-362.03 632.62,-368.03 626.62,-368.03"/>
<text text-anchor="middle" x="603.25" y="-344.98" font-family="Times,serif" font-size="14.00">normalize</text>
</g>
<!-- eval&#45;&gt;normalize -->
<g id="edge38" class="edge">
<title>eval&#45;&gt;normalize</title>
<path fill="none" stroke="black" d="M492.45,-781.55C510.18,-711.89 573.04,-464.82 594.79,-379.36"/>
<polygon fill="black" stroke="black" points="598.12,-380.43 597.2,-369.88 591.34,-378.71 598.12,-380.43"/>
</g>
<!-- eval&#45;&gt;parser -->
<g id="edge39" class="edge">
<title>eval&#45;&gt;parser</title>
<path fill="none" stroke="black" d="M493.21,-818.28C504.58,-855.45 532.34,-942.34 563.75,-1012.03 570.12,-1026.15 578.26,-1041.28 585.42,-1053.85"/>
<polygon fill="black" stroke="black" points="582.33,-1055.51 590.37,-1062.41 588.39,-1052 582.33,-1055.51"/>
</g>
<!-- eval&#45;&gt;propagate -->
<g id="edge40" class="edge">
<title>eval&#45;&gt;propagate</title>
<path fill="none" stroke="black" d="M510.65,-781.63C527.81,-767.84 551.51,-748.8 570.5,-733.54"/>
<polygon fill="black" stroke="black" points="572.61,-736.33 578.21,-727.34 568.23,-730.88 572.61,-736.33"/>
</g>
<!-- eval&#45;&gt;signals -->
<g id="edge41" class="edge">
<title>eval&#45;&gt;signals</title>
<path fill="none" stroke="black" d="M495.14,-781.89C506.42,-756.23 530.22,-709.33 563.75,-681.03 634.45,-621.35 676.27,-647.79 755.5,-600.03 767.91,-592.55 780.49,-582.82 791.14,-573.8"/>
<polygon fill="black" stroke="black" points="793.2,-576.65 798.46,-567.45 788.61,-571.37 793.2,-576.65"/>
</g>
<!-- eval&#45;&gt;tlib -->
<g id="edge42" class="edge">
<title>eval&#45;&gt;tlib</title>
<path fill="none" stroke="black" d="M496.46,-818.36C513.93,-854.77 552.51,-933.33 563.75,-941.03 620.07,-979.58 647.88,-960.03 716.12,-960.03 716.12,-960.03 716.12,-960.03 821.12,-960.03 912.92,-960.03 969.11,-842.17 990.67,-786.06"/>
<polygon fill="black" stroke="black" points="993.9,-787.41 994.1,-776.82 987.33,-784.97 993.9,-787.41"/>
</g>
<!-- eval&#45;&gt;ui -->
<g id="edge43" class="edge">
<title>eval&#45;&gt;ui</title>
<path fill="none" stroke="black" d="M513.84,-796.14C581.39,-784.59 762.73,-743.89 848.75,-630.03 878.54,-590.59 895.91,-535.01 904.35,-501.37"/>
<polygon fill="black" stroke="black" points="907.68,-502.45 906.61,-491.91 900.88,-500.82 907.68,-502.45"/>
</g>
<!-- faust&#45;ffi -->
<g id="node11" class="node">
<title>faust&#45;ffi</title>
<path fill="none" stroke="black" d="M47.5,-471.03C47.5,-471.03 12,-471.03 12,-471.03 6,-471.03 0,-465.03 0,-459.03 0,-459.03 0,-447.03 0,-447.03 0,-441.03 6,-435.03 12,-435.03 12,-435.03 47.5,-435.03 47.5,-435.03 53.5,-435.03 59.5,-441.03 59.5,-447.03 59.5,-447.03 59.5,-459.03 59.5,-459.03 59.5,-465.03 53.5,-471.03 47.5,-471.03"/>
<text text-anchor="middle" x="29.75" y="-447.98" font-family="Times,serif" font-size="14.00">faust&#45;ffi</text>
</g>
<!-- faust&#45;ffi&#45;&gt;box&#45;ffi -->
<g id="edge44" class="edge">
<title>faust&#45;ffi&#45;&gt;box&#45;ffi</title>
<path fill="none" stroke="black" d="M59.58,-446.19C100.52,-436.48 175.54,-418.68 220.8,-407.94"/>
<polygon fill="black" stroke="black" points="221.5,-411.37 230.42,-405.66 219.88,-404.56 221.5,-411.37"/>
</g>
<!-- faust&#45;ffi&#45;&gt;cranelift&#45;ffi -->
<g id="edge45" class="edge">
<title>faust&#45;ffi&#45;&gt;cranelift&#45;ffi</title>
<path fill="none" stroke="black" d="M52.99,-471.29C55.44,-474.02 57.7,-476.96 59.5,-480.03 92.9,-536.92 71.53,-562.57 95.5,-624.03 101.08,-638.33 108.98,-653.38 116.15,-665.85"/>
<polygon fill="black" stroke="black" points="113.06,-667.5 121.16,-674.33 119.09,-663.94 113.06,-667.5"/>
</g>
<!-- faust&#45;ffi&#45;&gt;interp&#45;ffi -->
<g id="edge46" class="edge">
<title>faust&#45;ffi&#45;&gt;interp&#45;ffi</title>
<path fill="none" stroke="black" d="M50.71,-471.44C53.69,-474.29 56.7,-477.21 59.5,-480.03 124.65,-545.52 197.76,-626.14 234.53,-667.22"/>
<polygon fill="black" stroke="black" points="231.74,-669.35 241.01,-674.47 236.96,-664.68 231.74,-669.35"/>
</g>
<!-- libfaust&#45;ffi -->
<g id="node19" class="node">
<title>libfaust&#45;ffi</title>
<path fill="none" stroke="black" d="M284.25,-471.03C284.25,-471.03 234.5,-471.03 234.5,-471.03 228.5,-471.03 222.5,-465.03 222.5,-459.03 222.5,-459.03 222.5,-447.03 222.5,-447.03 222.5,-441.03 228.5,-435.03 234.5,-435.03 234.5,-435.03 284.25,-435.03 284.25,-435.03 290.25,-435.03 296.25,-441.03 296.25,-447.03 296.25,-447.03 296.25,-459.03 296.25,-459.03 296.25,-465.03 290.25,-471.03 284.25,-471.03"/>
<text text-anchor="middle" x="259.38" y="-447.98" font-family="Times,serif" font-size="14.00">libfaust&#45;ffi</text>
</g>
<!-- faust&#45;ffi&#45;&gt;libfaust&#45;ffi -->
<g id="edge47" class="edge">
<title>faust&#45;ffi&#45;&gt;libfaust&#45;ffi</title>
<path fill="none" stroke="black" d="M59.58,-453.03C97.66,-453.03 165.22,-453.03 210.89,-453.03"/>
<polygon fill="black" stroke="black" points="210.77,-456.53 220.77,-453.03 210.77,-449.53 210.77,-456.53"/>
</g>
<!-- signal&#45;ffi -->
<g id="node23" class="node">
<title>signal&#45;ffi</title>
<path fill="none" stroke="black" d="M155.38,-254.03C155.38,-254.03 113.88,-254.03 113.88,-254.03 107.88,-254.03 101.88,-248.03 101.88,-242.03 101.88,-242.03 101.88,-230.03 101.88,-230.03 101.88,-224.03 107.88,-218.03 113.88,-218.03 113.88,-218.03 155.38,-218.03 155.38,-218.03 161.38,-218.03 167.38,-224.03 167.38,-230.03 167.38,-230.03 167.38,-242.03 167.38,-242.03 167.38,-248.03 161.38,-254.03 155.38,-254.03"/>
<text text-anchor="middle" x="134.62" y="-230.98" font-family="Times,serif" font-size="14.00">signal&#45;ffi</text>
</g>
<!-- faust&#45;ffi&#45;&gt;signal&#45;ffi -->
<g id="edge48" class="edge">
<title>faust&#45;ffi&#45;&gt;signal&#45;ffi</title>
<path fill="none" stroke="black" d="M52.62,-434.54C55.14,-431.84 57.51,-428.98 59.5,-426.03 94.27,-374.59 116.19,-304.47 126.54,-265.4"/>
<polygon fill="black" stroke="black" points="129.91,-266.34 129.01,-255.79 123.13,-264.6 129.91,-266.34"/>
</g>
<!-- fir&#45;&gt;tlib -->
<g id="edge49" class="edge">
<title>fir&#45;&gt;tlib</title>
<path fill="none" stroke="black" d="M630.31,-1230.04C693.65,-1233.35 856.53,-1232.19 938.75,-1142.03 986.27,-1089.93 997.5,-867.7 1000.04,-786.71"/>
<polygon fill="black" stroke="black" points="1003.54,-787.01 1000.33,-776.91 996.54,-786.81 1003.54,-787.01"/>
</g>
<!-- graph -->
<g id="node15" class="node">
<title>graph</title>
<path fill="none" stroke="black" d="M44.75,-579.03C44.75,-579.03 14.75,-579.03 14.75,-579.03 8.75,-579.03 2.75,-573.03 2.75,-567.03 2.75,-567.03 2.75,-555.03 2.75,-555.03 2.75,-549.03 8.75,-543.03 14.75,-543.03 14.75,-543.03 44.75,-543.03 44.75,-543.03 50.75,-543.03 56.75,-549.03 56.75,-555.03 56.75,-555.03 56.75,-567.03 56.75,-567.03 56.75,-573.03 50.75,-579.03 44.75,-579.03"/>
<text text-anchor="middle" x="29.75" y="-555.98" font-family="Times,serif" font-size="14.00">graph</text>
</g>
<!-- impulse&#45;runner -->
<g id="node16" class="node">
<title>impulse&#45;runner</title>
<path fill="none" stroke="black" d="M297,-1070.03C297,-1070.03 221.75,-1070.03 221.75,-1070.03 215.75,-1070.03 209.75,-1064.03 209.75,-1058.03 209.75,-1058.03 209.75,-1046.03 209.75,-1046.03 209.75,-1040.03 215.75,-1034.03 221.75,-1034.03 221.75,-1034.03 297,-1034.03 297,-1034.03 303,-1034.03 309,-1040.03 309,-1046.03 309,-1046.03 309,-1058.03 309,-1058.03 309,-1064.03 303,-1070.03 297,-1070.03"/>
<text text-anchor="middle" x="259.38" y="-1046.98" font-family="Times,serif" font-size="14.00">impulse&#45;runner</text>
</g>
<!-- impulse&#45;runner&#45;&gt;codegen -->
<g id="edge50" class="edge">
<title>impulse&#45;runner&#45;&gt;codegen</title>
<path fill="none" stroke="black" d="M309.28,-1066.78C349.93,-1079.05 407.09,-1096.3 445.23,-1107.8"/>
<polygon fill="black" stroke="black" points="443.9,-1111.06 454.48,-1110.59 445.92,-1104.35 443.9,-1111.06"/>
</g>
<!-- impulse&#45;runner&#45;&gt;compiler -->
<g id="edge51" class="edge">
<title>impulse&#45;runner&#45;&gt;compiler</title>
<path fill="none" stroke="black" d="M268.72,-1033.9C288.65,-990.6 339.17,-880.85 363.24,-828.56"/>
<polygon fill="black" stroke="black" points="366.32,-830.25 367.32,-819.7 359.96,-827.32 366.32,-830.25"/>
</g>
<!-- impulse&#45;runner&#45;&gt;fir -->
<g id="edge52" class="edge">
<title>impulse&#45;runner&#45;&gt;fir</title>
<path fill="none" stroke="black" d="M282.1,-1070.38C315.38,-1097.68 381.86,-1149.09 445.75,-1180.03 484.65,-1198.86 532.56,-1212.26 565.04,-1220.03"/>
<polygon fill="black" stroke="black" points="563.85,-1223.35 574.38,-1222.2 565.43,-1216.53 563.85,-1223.35"/>
</g>
<!-- interp&#45;ffi&#45;&gt;codegen -->
<g id="edge53" class="edge">
<title>interp&#45;ffi&#45;&gt;codegen</title>
<path fill="none" stroke="black" d="M268.57,-712.33C283.32,-745.04 315.53,-815.6 345,-874.03 372.29,-928.14 384.47,-938.95 409.75,-994.03 428.41,-1034.69 419.36,-1051.9 445.75,-1088.03 447.24,-1090.07 448.9,-1092.05 450.66,-1093.97"/>
<polygon fill="black" stroke="black" points="448.16,-1096.42 457.81,-1100.81 453.01,-1091.37 448.16,-1096.42"/>
</g>
<!-- interp&#45;ffi&#45;&gt;compiler -->
<g id="edge54" class="edge">
<title>interp&#45;ffi&#45;&gt;compiler</title>
<path fill="none" stroke="black" d="M280.58,-712.49C299.21,-729.51 327.05,-754.96 347.93,-774.03"/>
<polygon fill="black" stroke="black" points="345.54,-776.59 355.28,-780.75 350.26,-771.42 345.54,-776.59"/>
</g>
<!-- interp&#45;ffi&#45;&gt;ffi&#45;common -->
<g id="edge55" class="edge">
<title>interp&#45;ffi&#45;&gt;ffi&#45;common</title>
<path fill="none" stroke="black" d="M279.16,-675.6C311.65,-642.53 377.87,-569.48 409.75,-494.03 449.33,-400.34 394.59,-355.94 445.75,-268.03 446.86,-266.13 448.12,-264.29 449.51,-262.53"/>
<polygon fill="black" stroke="black" points="451.87,-265.13 456.19,-255.46 446.78,-260.32 451.87,-265.13"/>
</g>
<!-- libfaust&#45;ffi&#45;&gt;compiler -->
<g id="edge56" class="edge">
<title>libfaust&#45;ffi&#45;&gt;compiler</title>
<path fill="none" stroke="black" d="M264.03,-471.43C276,-530.64 314.95,-715.42 345,-768.03 345.96,-769.7 347.02,-771.35 348.16,-772.96"/>
<polygon fill="black" stroke="black" points="345.35,-775.05 354.4,-780.57 350.76,-770.61 345.35,-775.05"/>
</g>
<!-- libfaust&#45;ffi&#45;&gt;ffi&#45;common -->
<g id="edge57" class="edge">
<title>libfaust&#45;ffi&#45;&gt;ffi&#45;common</title>
<path fill="none" stroke="black" d="M296.62,-440.84C330.31,-427.78 379.68,-403.95 409.75,-368.03 440.07,-331.81 418.27,-306.45 445.75,-268.03 447.18,-266.03 448.77,-264.09 450.46,-262.22"/>
<polygon fill="black" stroke="black" points="452.59,-265.03 457.32,-255.55 447.71,-260.01 452.59,-265.03"/>
</g>
<!-- normalize&#45;&gt;interval -->
<g id="edge58" class="edge">
<title>normalize&#45;&gt;interval</title>
<path fill="none" stroke="black" d="M638.77,-343.92C677.32,-337.11 739.58,-326.1 779.93,-318.96"/>
<polygon fill="black" stroke="black" points="780.46,-322.42 789.7,-317.23 779.24,-315.53 780.46,-322.42"/>
</g>
<!-- normalize&#45;&gt;signals -->
<g id="edge59" class="edge">
<title>normalize&#45;&gt;signals</title>
<path fill="none" stroke="black" d="M624.08,-368.3C662.46,-403.66 746.98,-481.54 791.09,-522.19"/>
<polygon fill="black" stroke="black" points="788.5,-524.57 798.23,-528.77 793.25,-519.42 788.5,-524.57"/>
</g>
<!-- normalize&#45;&gt;sigtype -->
<g id="edge60" class="edge">
<title>normalize&#45;&gt;sigtype</title>
<path fill="none" stroke="black" d="M622.22,-331.71C640.66,-312.93 669.5,-283.54 690.35,-262.29"/>
<polygon fill="black" stroke="black" points="692.63,-264.97 697.13,-255.38 687.63,-260.06 692.63,-264.97"/>
</g>
<!-- normalize&#45;&gt;tlib -->
<g id="edge61" class="edge">
<title>normalize&#45;&gt;tlib</title>
<path fill="none" stroke="black" d="M607.68,-331.66C614.68,-300.02 633.93,-236.04 678.75,-209.03 782.88,-146.28 877.45,-189.04 938.75,-294.03 982.09,-368.27 996.17,-637.08 999.73,-727.28"/>
<polygon fill="black" stroke="black" points="996.22,-727.18 1000.09,-737.04 1003.21,-726.92 996.22,-727.18"/>
</g>
<!-- normalize&#45;&gt;ui -->
<g id="edge62" class="edge">
<title>normalize&#45;&gt;ui</title>
<path fill="none" stroke="black" d="M638.72,-346.18C688.84,-342.34 783.01,-341.83 848.75,-382.03 871.94,-396.21 888.59,-422.7 898.76,-443.29"/>
<polygon fill="black" stroke="black" points="895.58,-444.75 902.97,-452.33 901.92,-441.79 895.58,-444.75"/>
</g>
<!-- parser&#45;&gt;boxes -->
<g id="edge63" class="edge">
<title>parser&#45;&gt;boxes</title>
<path fill="none" stroke="black" d="M613.41,-1063.86C632.83,-1025.32 678.29,-935.11 701.67,-888.71"/>
<polygon fill="black" stroke="black" points="704.79,-890.3 706.16,-879.8 698.54,-887.15 704.79,-890.3"/>
</g>
<!-- parser&#45;&gt;diagnostics -->
<g id="edge64" class="edge">
<title>parser&#45;&gt;diagnostics</title>
<path fill="none" stroke="black" d="M630.48,-1066.08C644.04,-1057.84 660.89,-1047.6 676.04,-1038.39"/>
<polygon fill="black" stroke="black" points="677.68,-1041.49 684.41,-1033.31 674.05,-1035.51 677.68,-1041.49"/>
</g>
<!-- parser&#45;&gt;tlib -->
<g id="edge65" class="edge">
<title>parser&#45;&gt;tlib</title>
<path fill="none" stroke="black" d="M630.48,-1081.72C693.48,-1079.49 854.37,-1064.73 938.75,-974.03 987.75,-921.36 998.35,-832.63 1000.43,-786.65"/>
<polygon fill="black" stroke="black" points="1003.92,-787.02 1000.76,-776.91 996.93,-786.79 1003.92,-787.02"/>
</g>
<!-- propagate&#45;&gt;boxes -->
<g id="edge66" class="edge">
<title>propagate&#45;&gt;boxes</title>
<path fill="none" stroke="black" d="M628.98,-726.52C633.82,-730.69 638.66,-735.29 642.75,-740.03 667.35,-768.47 688.91,-806.12 702.18,-831.6"/>
<polygon fill="black" stroke="black" points="698.99,-833.06 706.66,-840.37 705.22,-829.87 698.99,-833.06"/>
</g>
<!-- propagate&#45;&gt;diagnostics -->
<g id="edge67" class="edge">
<title>propagate&#45;&gt;diagnostics</title>
<path fill="none" stroke="black" d="M610.91,-726.25C629.65,-777.49 682.88,-923.11 705.62,-985.3"/>
<polygon fill="black" stroke="black" points="702.26,-986.29 708.98,-994.48 708.83,-983.88 702.26,-986.29"/>
</g>
<!-- propagate&#45;&gt;signals -->
<g id="edge68" class="edge">
<title>propagate&#45;&gt;signals</title>
<path fill="none" stroke="black" d="M638.33,-697.97C670.99,-687.09 720.37,-667.28 755.5,-638.03 776.07,-620.9 793.15,-595.62 804.42,-576.21"/>
<polygon fill="black" stroke="black" points="807.34,-578.16 809.18,-567.72 801.24,-574.73 807.34,-578.16"/>
</g>
<!-- propagate&#45;&gt;tlib -->
<g id="edge69" class="edge">
<title>propagate&#45;&gt;tlib</title>
<path fill="none" stroke="black" d="M627.95,-726.35C641.91,-735.99 660.39,-746.86 678.75,-752.03 778.39,-780.09 902.34,-770.17 963.31,-762.54"/>
<polygon fill="black" stroke="black" points="963.68,-766.02 973.14,-761.25 962.77,-759.08 963.68,-766.02"/>
</g>
<!-- propagate&#45;&gt;ui -->
<g id="edge70" class="edge">
<title>propagate&#45;&gt;ui</title>
<path fill="none" stroke="black" d="M638.15,-706.1C670.22,-703 718.79,-694.96 755.5,-674.03 826.49,-633.55 875.88,-546.28 897.87,-500.84"/>
<polygon fill="black" stroke="black" points="901,-502.41 902.1,-491.88 894.67,-499.43 901,-502.41"/>
</g>
<!-- signal&#45;ffi&#45;&gt;box&#45;ffi -->
<g id="edge71" class="edge">
<title>signal&#45;ffi&#45;&gt;box&#45;ffi</title>
<path fill="none" stroke="black" d="M149.47,-254.41C171.04,-283.05 212.79,-338.5 237.87,-371.8"/>
<polygon fill="black" stroke="black" points="235.05,-373.87 243.86,-379.75 240.64,-369.66 235.05,-373.87"/>
</g>
<!-- signal&#45;ffi&#45;&gt;ffi&#45;common -->
<g id="edge72" class="edge">
<title>signal&#45;ffi&#45;&gt;ffi&#45;common</title>
<path fill="none" stroke="black" d="M167.48,-244.68C218.8,-257.37 322.8,-278.01 409.75,-263.03 417.91,-261.62 426.35,-259.42 434.51,-256.88"/>
<polygon fill="black" stroke="black" points="435.61,-260.2 443.98,-253.71 433.39,-253.56 435.61,-260.2"/>
</g>
<!-- signal&#45;ffi&#45;&gt;normalize -->
<g id="edge73" class="edge">
<title>signal&#45;ffi&#45;&gt;normalize</title>
<path fill="none" stroke="black" d="M143.15,-217.8C153.96,-194.35 176.33,-154.66 209.75,-138.03 336.29,-75.08 412.43,-56.32 527.75,-138.03 586.9,-179.94 599.43,-272.71 601.86,-320.42"/>
<polygon fill="black" stroke="black" points="598.36,-320.42 602.23,-330.28 605.35,-320.15 598.36,-320.42"/>
</g>
<!-- signal&#45;ffi&#45;&gt;signals -->
<g id="edge74" class="edge">
<title>signal&#45;ffi&#45;&gt;signals</title>
<path fill="none" stroke="black" d="M167.65,-220.76C240.63,-188.46 421.22,-122.91 527.75,-209.03 587.13,-257.03 523.08,-312.4 563.75,-377.03 615.97,-460.01 724.79,-511.97 782.06,-534.68"/>
<polygon fill="black" stroke="black" points="780.79,-537.95 791.38,-538.29 783.32,-531.42 780.79,-537.95"/>
</g>
<!-- signal&#45;ffi&#45;&gt;tlib -->
<g id="edge75" class="edge">
<title>signal&#45;ffi&#45;&gt;tlib</title>
<path fill="none" stroke="black" d="M141.2,-217.55C150.94,-187.93 173.51,-129.34 209.75,-92.03 268.69,-31.35 291.78,-0.03 376.38,-0.03 376.38,-0.03 376.38,-0.03 821.12,-0.03 876.94,-0.03 904.98,0.41 938.75,-44.03 980.67,-99.19 996.61,-599.52 1000.02,-727.38"/>
<polygon fill="black" stroke="black" points="996.51,-727.15 1000.27,-737.05 1003.51,-726.97 996.51,-727.15"/>
</g>
<!-- signal&#45;ffi&#45;&gt;tree&#45;ffi -->
<g id="edge76" class="edge">
<title>signal&#45;ffi&#45;&gt;tree&#45;ffi</title>
<path fill="none" stroke="black" d="M167.59,-236.03C211.84,-236.03 291.59,-236.03 338.68,-236.03"/>
<polygon fill="black" stroke="black" points="338.67,-239.53 348.67,-236.03 338.67,-232.53 338.67,-239.53"/>
</g>
<!-- signals&#45;&gt;tlib -->
<g id="edge77" class="edge">
<title>signals&#45;&gt;tlib</title>
<path fill="none" stroke="black" d="M836.75,-566.21C868.47,-603.11 940.52,-686.95 977.66,-730.17"/>
<polygon fill="black" stroke="black" points="974.87,-732.29 984.05,-737.59 980.18,-727.73 974.87,-732.29"/>
</g>
<!-- signals&#45;&gt;ui -->
<g id="edge78" class="edge">
<title>signals&#45;&gt;ui</title>
<path fill="none" stroke="black" d="M842.82,-529.63C854.08,-520.09 868.01,-508.27 880.33,-497.83"/>
<polygon fill="black" stroke="black" points="882.43,-500.63 887.79,-491.5 877.9,-495.3 882.43,-500.63"/>
</g>
<!-- sigtype&#45;&gt;interval -->
<g id="edge79" class="edge">
<title>sigtype&#45;&gt;interval</title>
<path fill="none" stroke="black" d="M742.57,-254.43C755.5,-264.15 771.57,-276.25 785.65,-286.83"/>
<polygon fill="black" stroke="black" points="783.25,-289.41 793.34,-292.63 787.46,-283.82 783.25,-289.41"/>
</g>
<!-- sigtype&#45;&gt;signals -->
<g id="edge80" class="edge">
<title>sigtype&#45;&gt;signals</title>
<path fill="none" stroke="black" d="M723.99,-254.15C740.8,-306.06 789.22,-455.65 809.75,-519.06"/>
<polygon fill="black" stroke="black" points="806.37,-519.98 812.78,-528.41 813.03,-517.82 806.37,-519.98"/>
</g>
<!-- sigtype&#45;&gt;tlib -->
<g id="edge81" class="edge">
<title>sigtype&#45;&gt;tlib</title>
<path fill="none" stroke="black" d="M745.07,-231.16C773.52,-227.57 818.38,-226.49 848.75,-248.03 929.9,-305.58 982.23,-627.66 996.68,-727.51"/>
<polygon fill="black" stroke="black" points="993.2,-727.9 998.07,-737.31 1000.13,-726.91 993.2,-727.9"/>
</g>
<!-- sigtype&#45;&gt;ui -->
<g id="edge82" class="edge">
<title>sigtype&#45;&gt;ui</title>
<path fill="none" stroke="black" d="M744.87,-239.19C774.23,-244.05 820.88,-256.05 848.75,-285.03 890.85,-328.79 904.38,-401.8 908.71,-442.44"/>
<polygon fill="black" stroke="black" points="905.21,-442.57 909.62,-452.2 912.18,-441.92 905.21,-442.57"/>
</g>
<!-- transform&#45;&gt;boxes -->
<g id="edge83" class="edge">
<title>transform&#45;&gt;boxes</title>
<path fill="none" stroke="black" d="M512.12,-528.21C517.45,-532.54 522.93,-537.29 527.75,-542.03 584.91,-598.26 601.52,-612.26 642.75,-681.03 672.44,-730.54 695.34,-794.27 707.18,-830.8"/>
<polygon fill="black" stroke="black" points="703.81,-831.74 710.18,-840.2 710.48,-829.61 703.81,-831.74"/>
</g>
<!-- transform&#45;&gt;fir -->
<g id="edge84" class="edge">
<title>transform&#45;&gt;fir</title>
<path fill="none" stroke="black" d="M490.99,-528.46C498.42,-571.28 516.87,-680.84 527.75,-773.03 538.93,-867.82 516.2,-1118.27 563.75,-1201.03 564.88,-1202.99 566.22,-1204.85 567.7,-1206.6"/>
<polygon fill="black" stroke="black" points="565.3,-1209.14 575,-1213.4 570.07,-1204.02 565.3,-1209.14"/>
</g>
<!-- transform&#45;&gt;interval -->
<g id="edge85" class="edge">
<title>transform&#45;&gt;interval</title>
<path fill="none" stroke="black" d="M488.95,-491.74C492.59,-453 507.03,-363 563.75,-323.03 628.13,-277.66 725.98,-289.91 779.96,-301.69"/>
<polygon fill="black" stroke="black" points="779.09,-305.08 789.62,-303.92 780.66,-298.26 779.09,-305.08"/>
</g>
<!-- transform&#45;&gt;normalize -->
<g id="edge86" class="edge">
<title>transform&#45;&gt;normalize</title>
<path fill="none" stroke="black" d="M500.88,-491.67C520.99,-463.58 559.5,-409.76 582.83,-377.16"/>
<polygon fill="black" stroke="black" points="585.41,-379.57 588.39,-369.4 579.72,-375.49 585.41,-379.57"/>
</g>
<!-- transform&#45;&gt;propagate -->
<g id="edge87" class="edge">
<title>transform&#45;&gt;propagate</title>
<path fill="none" stroke="black" d="M515.43,-528.27C520.07,-532.34 524.44,-536.97 527.75,-542.03 561.51,-593.64 530.48,-624.11 563.75,-676.03 564.95,-677.89 566.29,-679.71 567.73,-681.46"/>
<polygon fill="black" stroke="black" points="565.11,-683.78 574.57,-688.56 570.15,-678.93 565.11,-683.78"/>
</g>
<!-- transform&#45;&gt;signals -->
<g id="edge88" class="edge">
<title>transform&#45;&gt;signals</title>
<path fill="none" stroke="black" d="M521.66,-513.92C584.08,-521.07 716.74,-536.29 781.71,-543.74"/>
<polygon fill="black" stroke="black" points="781.18,-547.2 791.51,-544.86 781.98,-540.24 781.18,-547.2"/>
</g>
<!-- transform&#45;&gt;sigtype -->
<g id="edge89" class="edge">
<title>transform&#45;&gt;sigtype</title>
<path fill="none" stroke="black" d="M488.87,-491.6C492.39,-449.92 506.69,-347.55 563.75,-290.03 594.47,-259.06 644.06,-245.79 678.28,-240.14"/>
<polygon fill="black" stroke="black" points="678.37,-243.67 687.75,-238.73 677.34,-236.74 678.37,-243.67"/>
</g>
<!-- transform&#45;&gt;tlib -->
<g id="edge90" class="edge">
<title>transform&#45;&gt;tlib</title>
<path fill="none" stroke="black" d="M521.62,-523.4C553.23,-536.07 601.58,-555.96 642.75,-575.03 762.31,-630.4 900.44,-703.2 964.57,-737.52"/>
<polygon fill="black" stroke="black" points="962.78,-740.53 973.24,-742.17 966.08,-734.36 962.78,-740.53"/>
</g>
<!-- transform&#45;&gt;ui -->
<g id="edge91" class="edge">
<title>transform&#45;&gt;ui</title>
<path fill="none" stroke="black" d="M521.65,-506.98C599.68,-499.97 791.51,-482.74 873.07,-475.41"/>
<polygon fill="black" stroke="black" points="873.35,-478.9 883,-474.52 872.73,-471.93 873.35,-478.9"/>
</g>
<!-- tree&#45;ffi&#45;&gt;ffi&#45;common -->
<g id="edge92" class="edge">
<title>tree&#45;ffi&#45;&gt;ffi&#45;common</title>
<path fill="none" stroke="black" d="M404.64,-236.03C413.57,-236.03 423.89,-236.03 434.11,-236.03"/>
<polygon fill="black" stroke="black" points="434.01,-239.53 444.01,-236.03 434.01,-232.53 434.01,-239.53"/>
</g>
<!-- tree&#45;ffi&#45;&gt;tlib -->
<g id="edge93" class="edge">
<title>tree&#45;ffi&#45;&gt;tlib</title>
<path fill="none" stroke="black" d="M396.49,-217.56C414.58,-199.18 440.44,-173.15 445.75,-169.03 509.7,-119.46 521.34,-76.03 602.25,-76.03 602.25,-76.03 602.25,-76.03 821.12,-76.03 904.45,-76.03 906.55,-145.17 938.75,-222.03 977.56,-314.65 994.89,-628.53 999.47,-727.13"/>
<polygon fill="black" stroke="black" points="995.97,-727.22 999.91,-737.05 1002.96,-726.91 995.97,-727.22"/>
</g>
<!-- ui&#45;&gt;tlib -->
<g id="edge94" class="edge">
<title>ui&#45;&gt;tlib</title>
<path fill="none" stroke="black" d="M918.39,-490.29C933.25,-538.43 973.61,-669.14 991.73,-727.82"/>
<polygon fill="black" stroke="black" points="988.3,-728.58 994.6,-737.1 994.99,-726.52 988.3,-728.58"/>
</g>
<!-- wasm&#45;ffi -->
<g id="node30" class="node">
<title>wasm&#45;ffi</title>
<path fill="none" stroke="black" d="M280.12,-929.03C280.12,-929.03 238.62,-929.03 238.62,-929.03 232.62,-929.03 226.62,-923.03 226.62,-917.03 226.62,-917.03 226.62,-905.03 226.62,-905.03 226.62,-899.03 232.62,-893.03 238.62,-893.03 238.62,-893.03 280.12,-893.03 280.12,-893.03 286.12,-893.03 292.12,-899.03 292.12,-905.03 292.12,-905.03 292.12,-917.03 292.12,-917.03 292.12,-923.03 286.12,-929.03 280.12,-929.03"/>
<text text-anchor="middle" x="259.38" y="-905.98" font-family="Times,serif" font-size="14.00">wasm&#45;ffi</text>
</g>
<!-- wasm&#45;ffi&#45;&gt;codegen -->
<g id="edge95" class="edge">
<title>wasm&#45;ffi&#45;&gt;codegen</title>
<path fill="none" stroke="black" d="M278.55,-929.42C311.2,-962.2 382.27,-1032.52 445.75,-1088.03 448.2,-1090.17 450.76,-1092.35 453.36,-1094.52"/>
<polygon fill="black" stroke="black" points="451.07,-1097.17 461.03,-1100.79 455.51,-1091.75 451.07,-1097.17"/>
</g>
<!-- wasm&#45;ffi&#45;&gt;compiler -->
<g id="edge96" class="edge">
<title>wasm&#45;ffi&#45;&gt;compiler</title>
<path fill="none" stroke="black" d="M279.53,-892.7C298.5,-874.54 327.74,-846.56 349.13,-826.1"/>
<polygon fill="black" stroke="black" points="351.29,-828.87 356.1,-819.43 346.45,-823.82 351.29,-828.87"/>
</g>
<!-- wasm&#45;ffi&#45;&gt;ffi&#45;common -->
<g id="edge97" class="edge">
<title>wasm&#45;ffi&#45;&gt;ffi&#45;common</title>
<path fill="none" stroke="black" d="M270.39,-892.67C297.73,-841.63 374,-693.06 409.75,-560.03 443.68,-433.75 381.99,-382.19 445.75,-268.03 446.82,-266.11 448.06,-264.26 449.43,-262.48"/>
<polygon fill="black" stroke="black" points="451.79,-265.08 456.05,-255.38 446.67,-260.31 451.79,-265.08"/>
</g>
<!-- wasm&#45;ffi&#45;&gt;parser -->
<g id="edge98" class="edge">
<title>wasm&#45;ffi&#45;&gt;parser</title>
<path fill="none" stroke="black" d="M292.54,-927.11C356.44,-959.08 498.99,-1030.38 566.05,-1063.92"/>
<polygon fill="black" stroke="black" points="564.28,-1066.95 574.79,-1068.29 567.41,-1060.69 564.28,-1066.95"/>
</g>
<!-- xtask -->
<g id="node31" class="node">
<title>xtask</title>
<path fill="none" stroke="black" d="M274.38,-1260.03C274.38,-1260.03 244.38,-1260.03 244.38,-1260.03 238.38,-1260.03 232.38,-1254.03 232.38,-1248.03 232.38,-1248.03 232.38,-1236.03 232.38,-1236.03 232.38,-1230.03 238.38,-1224.03 244.38,-1224.03 244.38,-1224.03 274.38,-1224.03 274.38,-1224.03 280.38,-1224.03 286.38,-1230.03 286.38,-1236.03 286.38,-1236.03 286.38,-1248.03 286.38,-1248.03 286.38,-1254.03 280.38,-1260.03 274.38,-1260.03"/>
<text text-anchor="middle" x="259.38" y="-1236.98" font-family="Times,serif" font-size="14.00">xtask</text>
</g>
<!-- xtask&#45;&gt;codegen -->
<g id="edge99" class="edge">
<title>xtask&#45;&gt;codegen</title>
<path fill="none" stroke="black" d="M286.77,-1233.55C317.45,-1223.15 369.07,-1203.91 409.75,-1180.03 426.4,-1170.25 443.41,-1157.17 457.1,-1145.72"/>
<polygon fill="black" stroke="black" points="459.09,-1148.62 464.43,-1139.46 454.55,-1143.29 459.09,-1148.62"/>
</g>
<!-- xtask&#45;&gt;compiler -->
<g id="edge100" class="edge">
<title>xtask&#45;&gt;compiler</title>
<path fill="none" stroke="black" d="M266.24,-1223.54C275.72,-1193.41 294.77,-1131.78 309,-1079.03 333.39,-988.61 358.28,-880.59 369.79,-829.53"/>
<polygon fill="black" stroke="black" points="373.18,-830.39 371.96,-819.87 366.35,-828.86 373.18,-830.39"/>
</g>
<!-- xtask&#45;&gt;fir -->
<g id="edge101" class="edge">
<title>xtask&#45;&gt;fir</title>
<path fill="none" stroke="black" d="M286.82,-1247.42C335.11,-1256.38 440.63,-1271.86 527.75,-1256.03 540.45,-1253.72 553.8,-1249.37 565.63,-1244.77"/>
<polygon fill="black" stroke="black" points="566.68,-1248.13 574.61,-1241.11 564.03,-1241.65 566.68,-1248.13"/>
</g>
<!-- xtask&#45;&gt;parser -->
<g id="edge102" class="edge">
<title>xtask&#45;&gt;parser</title>
<path fill="none" stroke="black" d="M286.63,-1238.67C316.96,-1234.28 368.03,-1225.29 409.75,-1210.03 465.58,-1189.6 478.81,-1180.79 527.75,-1147.03 544.44,-1135.51 561.59,-1120.79 575.22,-1108.26"/>
<polygon fill="black" stroke="black" points="577.61,-1110.82 582.52,-1101.44 572.83,-1105.71 577.61,-1110.82"/>
</g>
<!-- xtask&#45;&gt;tlib -->
<g id="edge103" class="edge">
<title>xtask&#45;&gt;tlib</title>
<path fill="none" stroke="black" d="M286.84,-1257.4C342.99,-1288.52 478.99,-1356.03 602.25,-1356.03 602.25,-1356.03 602.25,-1356.03 821.12,-1356.03 916.69,-1356.03 904.83,-1265.37 938.75,-1176.03 991.44,-1037.24 999.59,-856.78 1000.67,-786.68"/>
<polygon fill="black" stroke="black" points="1004.17,-786.83 1000.78,-776.79 997.17,-786.75 1004.17,-786.83"/>
</g>
</g>
</svg>
